<svg width="21" height="34" viewBox="0 0 21 34" fill="none" xmlns="http://www.w3.org/2000/svg">
<path d="M16.5939 22.3132C17.5715 23.1357 18.2253 24.2503 18.4478 25.4734C18.6702 26.6965 18.448 27.9551 17.8177 29.0421C17.1874 30.129 16.1866 30.9794 14.9801 31.4532C13.7737 31.9269 12.4335 31.9958 11.1804 31.6484C9.92735 31.301 8.83605 30.5582 8.08626 29.5422C7.33647 28.5262 6.97288 27.2977 7.05539 26.0589C7.1379 24.8201 7.6616 23.645 8.54023 22.7271C9.41887 21.8092 10.6 21.2032 11.8892 21.009M6.92827 20.4134C5.83837 19.846 4.9951 18.9297 4.54811 17.8272C4.10111 16.7247 4.0793 15.5072 4.48655 14.3908C4.89379 13.2744 5.70379 12.3313 6.77278 11.7289C7.84177 11.1265 9.10062 10.9038 10.3259 11.1002C11.5512 11.2966 12.6637 11.8994 13.466 12.8017C14.2683 13.7041 14.7084 14.8475 14.7084 16.0292M4.7313 23.7005C4.7313 23.7005 3.20493 24.0125 2.11108 24.6461" stroke="white" stroke-width="2.75" stroke-miterlimit="6" stroke-linecap="round" stroke-linejoin="round"/>
<path d="M11.9361 20.9686C11.9361 20.9686 18.2275 19.4499 18.387 13.9698C18.387 13.9698 18.6639 11.3167 16.1688 9.42261L12.3322 6.21798C12.3322 6.21798 10.7933 4.20033 14.2561 2.96265" stroke="white" stroke-width="2.75" stroke-miterlimit="6" stroke-linecap="round" stroke-linejoin="round"/>
<path d="M11.9513 7.18912H10.059L11.3746 6.46683M11.0756 5.58814H8.61987L11.1775 4.15588M11.2371 3.9069C11.2371 3.9069 10.4463 3.05222 9.73487 3.05859C9.73487 3.05859 10.6144 2.45637 11.9899 2.89849M12.7326 2.27595L11.2768 1.42004L13.4558 1.95884" stroke="white" stroke-width="0.646097" stroke-miterlimit="6" stroke-linecap="round" stroke-linejoin="round"/>
<path d="M13.9693 1.84121L10.9257 0.444458L15.014 1.95308C15.014 1.95308 15.9993 3.10394 16.8335 3.10394H19.9C19.9 3.10394 20.5555 3.14909 20.5555 3.72729H17.337C17.337 3.72729 17.106 3.95307 17.337 4.17269H20.0148L19.3576 4.9348C19.3576 4.9348 18.9096 5.29441 18.5314 4.9348H13.2901" stroke="white" stroke-width="0.646097" stroke-miterlimit="6" stroke-linecap="round" stroke-linejoin="round"/>
<path d="M14.9876 3.13568H16.7855L15.9416 3.99159L14.9876 3.13568Z" stroke="white" stroke-width="0.646097" stroke-miterlimit="6" stroke-linecap="round" stroke-linejoin="round"/>
<path d="M9.45891 5.37145C9.46538 5.36529 10.8575 4.58635 10.8588 4.58799C10.8594 4.58881 10.8553 4.61755 10.8495 4.65162C10.8279 4.77908 10.8141 4.95704 10.8098 5.16332L10.8055 5.37535H10.1299C9.7587 5.37535 9.45653 5.3735 9.45891 5.37124V5.37145ZM11.1336 3.50343C10.9182 3.31829 10.7228 3.18057 10.5133 3.06644L10.4209 3.01595L10.5268 2.99666C10.7155 2.96197 10.7604 2.95848 11.0056 2.95889C11.2477 2.95951 11.3013 2.96382 11.5057 2.99994L11.5976 3.01616L11.5231 3.10914C11.4288 3.22747 11.3427 3.35157 11.2654 3.48065C11.2376 3.52827 11.2132 3.56685 11.211 3.56685C11.1841 3.54686 11.1584 3.5257 11.1336 3.50343ZM18.8567 4.8735C18.8118 4.86447 18.7596 4.83656 18.7043 4.79181C18.6801 4.77197 18.6541 4.75412 18.6266 4.73844L18.5949 4.72223L16.1051 4.71853L13.6152 4.71484L13.6497 4.67071C13.6685 4.64608 13.713 4.60051 13.7482 4.5689C13.9122 4.42256 14.1539 4.31213 14.5131 4.21956C14.7624 4.15532 14.8847 4.104 15.0451 3.99604C15.1356 3.93102 15.2189 3.85743 15.2937 3.77642L15.3278 3.73804L15.5646 3.9515C15.8327 4.19329 15.8499 4.20499 15.9406 4.2054C16.0468 4.20581 16.0284 4.221 16.5 3.74194L16.9188 3.31665L18.4203 3.3185L19.9219 3.32014L19.9916 3.34066C20.0844 3.36858 20.1595 3.40717 20.2143 3.4554C20.2391 3.47716 20.2596 3.49809 20.2596 3.50158C20.2596 3.50528 19.6147 3.50897 18.7715 3.51L17.2835 3.51205L17.2481 3.52745C17.1967 3.55002 17.1605 3.58348 17.1139 3.65121C16.9792 3.84641 16.9729 4.0568 17.0966 4.23393C17.135 4.28894 17.1937 4.34518 17.2339 4.3655L17.268 4.38274L18.4002 4.38643L19.5323 4.39013L19.3639 4.58573C19.179 4.80023 19.1662 4.8111 19.051 4.85092C18.981 4.87535 18.9079 4.88376 18.8567 4.8735Z" stroke="white" stroke-width="0.9375" stroke-miterlimit="6" stroke-linecap="round" stroke-linejoin="round"/>
<path d="M16.3984 4.29616C16.4633 4.23418 16.5536 4.14592 16.5987 4.09973L16.6807 4.01599L16.6859 4.05171C16.6988 4.14325 16.7295 4.23746 16.7742 4.32202L16.8199 4.40864H16.2801L16.3984 4.29616ZM15.0291 4.37088C15.1219 4.32321 15.2105 4.26858 15.2942 4.20749L15.338 4.17342L15.3525 4.18881C15.3725 4.21016 15.5387 4.35589 15.5761 4.38483L15.6069 4.40864H14.9553L15.0291 4.37088Z" stroke="white" stroke-width="0.625" stroke-miterlimit="6" stroke-linecap="round" stroke-linejoin="round"/>
<path d="M15.5935 2.85699C15.5916 2.83651 15.5906 2.81597 15.5905 2.79541C15.5912 2.79521 15.6298 2.8225 15.6762 2.85637L15.7604 2.91795H15.5979L15.5935 2.85699ZM10.9091 6.97377C10.9885 6.92823 11.0689 6.88416 11.1502 6.84158C11.1534 6.84076 11.1769 6.87094 11.2026 6.9085L11.2492 6.97664H11.0777C10.9831 6.97664 10.9069 6.97541 10.9091 6.97377Z" stroke="white" stroke-width="0.3125" stroke-miterlimit="6" stroke-linecap="round" stroke-linejoin="round"/>
<path d="M12.8835 2.11613C12.8486 2.09153 12.8125 2.06858 12.7753 2.04736C12.7457 2.03114 12.717 2.01332 12.6894 1.994C12.6916 1.99195 13.0028 2.06727 13.0218 2.07405C13.027 2.0761 13.0084 2.08759 12.9722 2.10504C12.9519 2.11563 12.9309 2.12502 12.9094 2.13316C12.8997 2.12896 12.8909 2.12312 12.8835 2.11592V2.11613Z" stroke="white" stroke-width="0.3125" stroke-miterlimit="6" stroke-linecap="round" stroke-linejoin="round"/>
</svg>
