<svg width="50" height="50" viewBox="0 0 50 50" fill="none" xmlns="http://www.w3.org/2000/svg">
<rect width="50.0002" height="50.0002" rx="25.0001" fill="#031121"/>
<mask id="mask0_0_1" style="mask-type:luminance" maskUnits="userSpaceOnUse" x="17" y="16" width="5" height="21">
<path d="M17.0001 16.3198V36.5178H17.5009V16.8207H19.8488C20.7314 16.8207 21.4499 17.5392 21.4499 18.4217V34.3339H21.9507V18.4217C21.9507 17.2629 21.0077 16.3198 19.8488 16.3198H17.0001Z" fill="white"/>
</mask>
<g mask="url(#mask0_0_1)">
<path d="M21.9204 15.938L23.5098 36.3967L17.0303 36.9004L15.441 16.4408L21.9204 15.938Z" fill="url(#paint0_linear_0_1)"/>
</g>
<mask id="mask1_0_1" style="mask-type:luminance" maskUnits="userSpaceOnUse" x="19" y="16" width="1" height="10">
<path d="M19.7258 16.5706H19.2249V25.4751H19.7258V16.5706Z" fill="white"/>
</mask>
<g mask="url(#mask1_0_1)">
<path d="M19.7227 16.5315L20.413 25.4214L19.2278 25.5132L18.5375 16.6233L19.7227 16.5315Z" fill="url(#paint1_linear_0_1)"/>
</g>
<mask id="mask2_0_1" style="mask-type:luminance" maskUnits="userSpaceOnUse" x="20" y="33" width="3" height="3">
<path d="M20.8887 34.3337C20.8887 34.7818 21.2518 35.146 21.7009 35.146C22.149 35.146 22.5132 34.7828 22.5132 34.3337C22.5132 33.8847 22.15 33.5215 21.7009 33.5215C21.2518 33.5225 20.8887 33.8856 20.8887 34.3337Z" fill="white"/>
</mask>
<g mask="url(#mask2_0_1)">
<path d="M22.5022 33.3966L22.6369 35.1363L20.8982 35.271L20.7625 33.5323L22.5022 33.3966Z" fill="url(#paint2_linear_0_1)"/>
</g>
<mask id="mask3_0_1" style="mask-type:luminance" maskUnits="userSpaceOnUse" x="18" y="37" width="3" height="3">
<path d="M18.6636 38.7319C18.6636 39.18 19.0268 39.5442 19.4759 39.5442C19.924 39.5442 20.2881 39.181 20.2881 38.7319C20.2881 38.2838 19.9249 37.9197 19.4759 37.9197C19.0268 37.9197 18.6636 38.2838 18.6636 38.7319Z" fill="white"/>
</mask>
<g mask="url(#mask3_0_1)">
<path d="M20.2773 37.7947L20.413 39.5344L18.6733 39.6691L18.5376 37.9294L20.2773 37.7947Z" fill="url(#paint3_linear_0_1)"/>
</g>
<mask id="mask4_0_1" style="mask-type:luminance" maskUnits="userSpaceOnUse" x="27" y="14" width="6" height="20">
<path d="M31.937 14.0264V33.008H29.589C28.7065 33.008 27.988 32.2894 27.988 31.4069V16.2103H27.4871V31.4069C27.4871 32.5657 28.4302 33.5088 29.589 33.5088H32.4378V14.0264H31.937Z" fill="white"/>
</mask>
<g mask="url(#mask4_0_1)">
<path d="M32.4084 13.6437L33.9422 33.3916L27.5173 33.8905L25.9836 14.1425L32.4084 13.6437Z" fill="url(#paint4_linear_0_1)"/>
</g>
<mask id="mask5_0_1" style="mask-type:luminance" maskUnits="userSpaceOnUse" x="29" y="24" width="2" height="10">
<path d="M30.2138 24.2188H29.7129V33.259H30.2138V24.2188Z" fill="white"/>
</mask>
<g mask="url(#mask5_0_1)">
<path d="M30.2111 24.1797L30.912 33.2043L29.7161 33.2971L29.0151 24.2724L30.2111 24.1797Z" fill="url(#paint5_linear_0_1)"/>
</g>
<mask id="mask6_0_1" style="mask-type:luminance" maskUnits="userSpaceOnUse" x="26" y="15" width="3" height="3">
<path d="M26.9268 16.2104C26.9268 16.6586 27.2899 17.0227 27.739 17.0227C28.1871 17.0227 28.5513 16.6595 28.5513 16.2104C28.5513 15.7623 28.1881 15.3982 27.739 15.3982C27.2899 15.3982 26.9268 15.7614 26.9268 16.2104Z" fill="white"/>
</mask>
<g mask="url(#mask6_0_1)">
<path d="M28.5406 15.2732L28.6763 17.0119L26.9366 17.1476L26.8008 15.4079L28.5406 15.2732Z" fill="url(#paint6_linear_0_1)"/>
</g>
<mask id="mask7_0_1" style="mask-type:luminance" maskUnits="userSpaceOnUse" x="29" y="10" width="2" height="3">
<path d="M29.1516 11.8121C29.1516 12.2602 29.5148 12.6244 29.9639 12.6244C30.412 12.6244 30.7761 12.2612 30.7761 11.8121C30.7761 11.364 30.4129 10.9999 29.9639 10.9999C29.5148 10.9999 29.1516 11.364 29.1516 11.8121Z" fill="white"/>
</mask>
<g mask="url(#mask7_0_1)">
<path d="M30.7654 10.8751L30.9001 12.6148L29.1604 12.7496L29.0257 11.0098L30.7654 10.8751Z" fill="url(#paint7_linear_0_1)"/>
</g>
<mask id="mask8_0_1" style="mask-type:luminance" maskUnits="userSpaceOnUse" x="31" y="13" width="2" height="3">
<path d="M31.3755 14.2012C31.3755 14.6493 31.7387 15.0134 32.1878 15.0134C32.6359 15.0134 33 14.6503 33 14.2012C33 13.7531 32.6368 13.3889 32.1878 13.3889C31.7397 13.3899 31.3755 13.7531 31.3755 14.2012Z" fill="white"/>
</mask>
<g mask="url(#mask8_0_1)">
<path d="M32.9903 13.2638L33.125 15.0035L31.3853 15.1382L31.2506 13.3995L32.9903 13.2638Z" fill="url(#paint8_linear_0_1)"/>
</g>
<mask id="mask9_0_1" style="mask-type:luminance" maskUnits="userSpaceOnUse" x="17" y="11" width="14" height="16">
<path d="M29.713 11.8123V19.1938C29.713 20.257 29.0794 21.2069 28.0972 21.6159L17.1543 26.1693L17.3466 26.632L28.2896 22.0787C29.4582 21.5925 30.2128 20.46 30.2128 19.1948V11.8132H29.713V11.8123Z" fill="white"/>
</mask>
<g mask="url(#mask9_0_1)">
<path d="M30.1346 10.804L31.3579 26.5434L17.2333 27.6397L16.01 11.9013L30.1346 10.804Z" fill="url(#paint9_linear_0_1)"/>
</g>
<mask id="mask10_0_1" style="mask-type:luminance" maskUnits="userSpaceOnUse" x="19" y="23" width="14" height="16">
<path d="M21.1491 27.6151C19.9805 28.1013 19.2258 29.2337 19.2258 30.499V38.7319H19.7267V30.499C19.7267 29.4358 20.3603 28.4859 21.3424 28.0769L32.2854 23.5235L32.093 23.0608L21.1491 27.6151Z" fill="white"/>
</mask>
<g mask="url(#mask10_0_1)">
<path d="M32.2053 22.0532L33.494 38.6381L19.3029 39.7403L18.0152 23.1554L32.2053 22.0532Z" fill="url(#paint10_linear_0_1)"/>
</g>
<defs>
<linearGradient id="paint0_linear_0_1" x1="18.4725" y1="13.5419" x2="20.1213" y2="34.7698" gradientUnits="userSpaceOnUse">
<stop stop-color="#01FCFC"/>
<stop offset="1" stop-color="#0170FE"/>
</linearGradient>
<linearGradient id="paint1_linear_0_1" x1="18.8933" y1="13.5098" x2="20.542" y2="34.7377" gradientUnits="userSpaceOnUse">
<stop stop-color="#01FCFC"/>
<stop offset="1" stop-color="#0170FE"/>
</linearGradient>
<linearGradient id="paint2_linear_0_1" x1="20.0746" y1="13.4128" x2="21.7233" y2="34.6407" gradientUnits="userSpaceOnUse">
<stop stop-color="#01FCFC"/>
<stop offset="1" stop-color="#0170FE"/>
</linearGradient>
<linearGradient id="paint3_linear_0_1" x1="17.5241" y1="13.6109" x2="19.1728" y2="34.8388" gradientUnits="userSpaceOnUse">
<stop stop-color="#01FCFC"/>
<stop offset="1" stop-color="#0170FE"/>
</linearGradient>
<linearGradient id="paint4_linear_0_1" x1="29.105" y1="12.7083" x2="30.7537" y2="33.9363" gradientUnits="userSpaceOnUse">
<stop stop-color="#01FCFC"/>
<stop offset="1" stop-color="#0170FE"/>
</linearGradient>
<linearGradient id="paint5_linear_0_1" x1="28.7224" y1="12.7472" x2="30.3712" y2="33.9751" gradientUnits="userSpaceOnUse">
<stop stop-color="#01FCFC"/>
<stop offset="1" stop-color="#0170FE"/>
</linearGradient>
<linearGradient id="paint6_linear_0_1" x1="27.4761" y1="12.8379" x2="29.1248" y2="34.0659" gradientUnits="userSpaceOnUse">
<stop stop-color="#01FCFC"/>
<stop offset="1" stop-color="#0170FE"/>
</linearGradient>
<linearGradient id="paint7_linear_0_1" x1="30.0265" y1="12.6398" x2="31.6753" y2="33.8678" gradientUnits="userSpaceOnUse">
<stop stop-color="#01FCFC"/>
<stop offset="1" stop-color="#0170FE"/>
</linearGradient>
<linearGradient id="paint8_linear_0_1" x1="32.055" y1="12.4821" x2="33.7037" y2="33.71" gradientUnits="userSpaceOnUse">
<stop stop-color="#01FCFC"/>
<stop offset="1" stop-color="#0170FE"/>
</linearGradient>
<linearGradient id="paint9_linear_0_1" x1="23.2143" y1="13.1705" x2="24.8631" y2="34.3985" gradientUnits="userSpaceOnUse">
<stop stop-color="#01FCFC"/>
<stop offset="1" stop-color="#0170FE"/>
</linearGradient>
<linearGradient id="paint10_linear_0_1" x1="24.3715" y1="13.0759" x2="26.0203" y2="34.3039" gradientUnits="userSpaceOnUse">
<stop stop-color="#01FCFC"/>
<stop offset="1" stop-color="#0170FE"/>
</linearGradient>
</defs>
</svg>
