<svg width="30" height="24" viewBox="0 0 30 24" fill="none" xmlns="http://www.w3.org/2000/svg">
<path d="M10.9635 20.6458C10.6222 20.9883 10.3579 21.2175 10.0879 21.385C8.76627 22.205 7.13791 22.205 5.81624 21.385C5.3292 21.0828 4.86103 20.5797 3.92469 19.5737C2.98835 18.5675 2.52017 18.0644 2.23899 17.5409C1.47592 16.1207 1.47592 14.3709 2.23899 12.9506C2.52017 12.4274 2.98835 11.9243 3.92469 10.9181L7.9521 6.59031C8.88844 5.58413 9.3566 5.08103 9.84364 4.77888C11.1653 3.9589 12.7937 3.9589 14.1154 4.77887C14.6023 5.08103 15.0705 5.58413 16.0069 6.59031C16.9432 7.59648 17.4114 8.09956 17.6926 8.62292C18.4557 10.0432 18.4557 11.793 17.6926 13.2132C17.5367 13.5033 17.3234 13.7873 17.0046 14.1541M12.9955 9.84593C12.6767 10.2127 12.4634 10.4967 12.3074 10.7868C11.5444 12.207 11.5444 13.9568 12.3074 15.3771C12.5887 15.9005 13.0568 16.4036 13.9932 17.4097C14.9296 18.4159 15.3977 18.919 15.8847 19.2211C17.2064 20.0411 18.8348 20.0411 20.1564 19.2211C20.6435 18.919 21.1117 18.4159 22.0481 17.4097L26.0754 13.0819C27.0118 12.0757 27.48 11.5726 27.7611 11.0493C28.5241 9.62911 28.5241 7.87928 27.7611 6.45904C27.48 5.93568 27.0118 5.43259 26.0754 4.42641C25.1391 3.42023 24.6709 2.91715 24.1839 2.61498C22.8621 1.795 21.2339 1.795 19.9122 2.61498C19.6421 2.7825 19.378 3.01175 19.0365 3.35425" stroke="white" stroke-width="2.8" stroke-linecap="round"/>
</svg>
