<svg width="32" height="32" viewBox="0 0 32 32" fill="none" xmlns="http://www.w3.org/2000/svg">
<path d="M26.8917 25.4316C24.8714 27.7775 22.161 29.4099 19.1563 30.0906C16.1517 30.7713 13.0101 30.4646 10.1904 29.2153C7.37072 27.9657 5.02065 25.8389 3.48339 23.1455C1.94613 20.452 1.3022 17.3331 1.64564 14.244C1.98881 11.1547 3.30153 8.25703 5.39208 5.97427C7.48262 3.6915 10.2415 2.14322 13.2657 1.55554M18.7352 1.56736C20.7661 1.96215 22.6892 2.79269 24.3745 4.00277C26.0598 5.21286 27.4678 6.77425 28.5035 8.58127C29.5392 10.3883 30.1782 12.3989 30.3773 14.4769C30.5765 16.5548 30.331 18.6517 29.6577 20.6257" stroke="#F8F8F8" stroke-width="2" stroke-linecap="round"/>
<path d="M12.8814 15.091V12.2744C12.8814 10.5665 14.2791 9.18207 16.0035 9.18207C17.7278 9.18207 19.1256 10.5665 19.1256 12.2744V15.091M12.1008 15.091H19.9061C20.7709 15.091 21.4671 15.7938 21.4671 16.6667V21C21.4671 21.8729 20.7709 22.5757 19.9061 22.5757H12.1008C11.236 22.5757 10.5398 21.8729 10.5398 21V16.6667C10.5398 15.7938 11.236 15.091 12.1008 15.091Z" stroke="#F8F8F8" stroke-width="2"/>
</svg>
