<svg width="227" height="80" viewBox="0 0 227 80" fill="none" xmlns="http://www.w3.org/2000/svg">
<mask id="mask0_1_265" style="mask-type:luminance" maskUnits="userSpaceOnUse" x="1" y="14" width="15" height="58">
<path d="M1.5733 14.9094V71.5179H2.97696V16.3131H9.55743C12.0309 16.3131 14.0447 18.3269 14.0447 20.8004V65.3971H15.4484V20.8004C15.4484 17.5526 12.8053 14.9094 9.55743 14.9094H1.5733Z" fill="white"/>
</mask>
<g mask="url(#mask0_1_265)">
<path d="M15.3635 13.8396L19.818 71.1787L1.65809 72.5905L-2.79639 15.2487L15.3635 13.8396Z" fill="white"/>
</g>
<mask id="mask1_1_265" style="mask-type:luminance" maskUnits="userSpaceOnUse" x="7" y="15" width="3" height="26">
<path d="M9.21267 15.6125H7.80902V40.5691H9.21267V15.6125Z" fill="white"/>
</mask>
<g mask="url(#mask1_1_265)">
<path d="M9.20445 15.5032L11.1389 40.4187L7.81722 40.6759L5.88275 15.7604L9.20445 15.5032Z" fill="white"/>
</g>
<mask id="mask2_1_265" style="mask-type:luminance" maskUnits="userSpaceOnUse" x="12" y="63" width="6" height="5">
<path d="M12.4714 65.3971C12.4714 66.653 13.4893 67.6736 14.7479 67.6736C16.0038 67.6736 17.0244 66.6557 17.0244 65.3971C17.0244 64.1385 16.0066 63.1206 14.7479 63.1206C13.4893 63.1233 12.4714 64.1412 12.4714 65.3971Z" fill="white"/>
</mask>
<g mask="url(#mask2_1_265)">
<path d="M16.9943 62.7703L17.3719 67.6461L12.4988 68.0237L12.1185 63.1506L16.9943 62.7703Z" fill="white"/>
</g>
<mask id="mask3_1_265" style="mask-type:luminance" maskUnits="userSpaceOnUse" x="6" y="75" width="5" height="5">
<path d="M6.23572 77.7235C6.23572 78.9794 7.25356 80 8.5122 80C9.7681 80 10.7887 78.9821 10.7887 77.7235C10.7887 76.4676 9.77084 75.447 8.5122 75.447C7.25356 75.447 6.23572 76.4676 6.23572 77.7235Z" fill="white"/>
</mask>
<g mask="url(#mask3_1_265)">
<path d="M10.7586 75.0967L11.1389 79.9725L6.26307 80.3501L5.88275 75.4743L10.7586 75.0967Z" fill="white"/>
</g>
<mask id="mask4_1_265" style="mask-type:luminance" maskUnits="userSpaceOnUse" x="0" y="68" width="5" height="6">
<path d="M0 71.0282C0 72.2841 1.01786 73.3047 2.27649 73.3047C3.53513 73.3047 4.55297 72.2868 4.55297 71.0282C4.55297 69.7723 3.53513 68.7517 2.27649 68.7517C1.01786 68.7517 0 69.7696 0 71.0282Z" fill="white"/>
</mask>
<g mask="url(#mask4_1_265)">
<path d="M4.52563 68.4016L4.90321 73.2747L0.0273723 73.6551L-0.35022 68.7792L4.52563 68.4016Z" fill="white"/>
</g>
<mask id="mask5_1_265" style="mask-type:luminance" maskUnits="userSpaceOnUse" x="30" y="8" width="15" height="56">
<path d="M43.4366 8.48218V61.6814H36.8561C34.3826 61.6814 32.3688 59.6676 32.3688 57.1941V14.603H30.9651V57.1941C30.9651 60.442 33.6083 63.0851 36.8561 63.0851H44.8402V8.48218H43.4366Z" fill="white"/>
</mask>
<g mask="url(#mask5_1_265)">
<path d="M44.7582 7.40967L49.0567 62.7568L31.05 64.155L26.7515 8.80784L44.7582 7.40967Z" fill="white"/>
</g>
<mask id="mask6_1_265" style="mask-type:luminance" maskUnits="userSpaceOnUse" x="37" y="37" width="2" height="26">
<path d="M38.6073 37.0476H37.2036V62.3845H38.6073V37.0476Z" fill="white"/>
</mask>
<g mask="url(#mask6_1_265)">
<path d="M38.5991 36.9382L40.5636 62.2313L37.2118 62.4913L35.2473 37.1982L38.5991 36.9382Z" fill="white"/>
</g>
<mask id="mask7_1_265" style="mask-type:luminance" maskUnits="userSpaceOnUse" x="29" y="12" width="5" height="5">
<path d="M29.3947 14.6029C29.3947 15.8588 30.4125 16.8794 31.6711 16.8794C32.927 16.8794 33.9476 15.8615 33.9476 14.6029C33.9476 13.347 32.9298 12.3264 31.6711 12.3264C30.4125 12.3264 29.3947 13.3443 29.3947 14.6029Z" fill="white"/>
</mask>
<g mask="url(#mask7_1_265)">
<path d="M33.9175 11.9761L34.2979 16.8492L29.422 17.2295L29.0417 12.3537L33.9175 11.9761Z" fill="white"/>
</g>
<mask id="mask8_1_265" style="mask-type:luminance" maskUnits="userSpaceOnUse" x="35" y="0" width="6" height="5">
<path d="M35.6303 2.27649C35.6303 3.53239 36.6482 4.55298 37.9068 4.55298C39.1627 4.55298 40.1833 3.53513 40.1833 2.27649C40.1833 1.02059 39.1654 0 37.9068 0C36.6482 0 35.6303 1.02059 35.6303 2.27649Z" fill="white"/>
</mask>
<g mask="url(#mask8_1_265)">
<path d="M40.1532 -0.350098L40.5308 4.52575L35.6549 4.90334L35.2773 0.0274944L40.1532 -0.350098Z" fill="white"/>
</g>
<mask id="mask9_1_265" style="mask-type:luminance" maskUnits="userSpaceOnUse" x="41" y="6" width="6" height="6">
<path d="M41.8633 8.9718C41.8633 10.2277 42.8812 11.2483 44.1398 11.2483C45.3957 11.2483 46.4163 10.2304 46.4163 8.9718C46.4163 7.7159 45.3985 6.69531 44.1398 6.69531C42.8839 6.69805 41.8633 7.7159 41.8633 8.9718Z" fill="white"/>
</mask>
<g mask="url(#mask9_1_265)">
<path d="M46.389 6.34497L46.7666 11.2208L41.8907 11.5984L41.5131 6.7253L46.389 6.34497Z" fill="white"/>
</g>
<mask id="mask10_1_265" style="mask-type:luminance" maskUnits="userSpaceOnUse" x="2" y="2" width="37" height="42">
<path d="M37.2036 2.27637V22.9645C37.2036 25.9442 35.4279 28.6065 32.6753 29.7529L2.00562 42.5144L2.54464 43.8113L33.2143 31.0499C36.4895 29.6873 38.6046 26.5133 38.6046 22.9672V2.27911H37.2036V2.27637Z" fill="white"/>
</mask>
<g mask="url(#mask10_1_265)">
<path d="M38.3857 -0.550049L41.8141 43.5624L2.22724 46.6351L-1.20117 2.52541L38.3857 -0.550049Z" fill="white"/>
</g>
<mask id="mask11_1_265" style="mask-type:luminance" maskUnits="userSpaceOnUse" x="7" y="33" width="38" height="45">
<path d="M13.202 46.5667C9.92683 47.9293 7.81177 51.1033 7.81177 54.6493V77.7234H9.21542V54.6493C9.21542 51.6696 10.9912 49.0073 13.7438 47.8609L44.4134 35.0994L43.8744 33.8025L13.202 46.5667Z" fill="white"/>
</mask>
<g mask="url(#mask11_1_265)">
<path d="M44.1891 30.9788L47.8008 77.4607L8.02795 80.5499L4.41895 34.0679L44.1891 30.9788Z" fill="white"/>
</g>
<mask id="mask12_1_265" style="mask-type:luminance" maskUnits="userSpaceOnUse" x="61" y="27" width="18" height="22">
<path d="M75.5831 27.6653V37.0312H64.7178V27.6653H61.9297V48.9992H64.7178V39.3268H75.5831V48.9992H78.3686V27.6653H75.5831Z" fill="white"/>
</mask>
<g mask="url(#mask12_1_265)">
<path d="M78.1935 25.9771L80.5575 48.772L62.1048 50.6873L59.7408 27.8924L78.1935 25.9771Z" fill="white"/>
</g>
<mask id="mask13_1_265" style="mask-type:luminance" maskUnits="userSpaceOnUse" x="87" y="27" width="4" height="22">
<path d="M90.1833 27.6653H87.3978V48.9992H90.1833V27.6653Z" fill="white"/>
</mask>
<g mask="url(#mask13_1_265)">
<path d="M90.1531 27.3779L92.3721 48.772L87.4251 49.2837L85.2061 27.8923L90.1531 27.3779Z" fill="white"/>
</g>
<mask id="mask14_1_265" style="mask-type:luminance" maskUnits="userSpaceOnUse" x="98" y="27" width="22" height="23">
<path d="M103.465 28.8119C101.831 29.7395 100.542 31.0364 99.593 32.7C98.6435 34.3636 98.1702 36.2351 98.1702 38.3173C98.1702 40.3996 98.6435 42.2656 99.593 43.9183C100.542 45.5709 101.831 46.8624 103.465 47.7899C105.098 48.7202 106.904 49.1826 108.882 49.1826C110.759 49.1826 112.464 48.7585 113.993 47.9131C115.523 47.0676 116.757 45.9129 117.698 44.4546C118.637 42.9962 119.187 41.39 119.351 39.6334V37.491H107.873V39.7566H116.382C116.158 41.8798 115.372 43.5626 114.026 44.8075C112.68 46.0525 110.964 46.6736 108.885 46.6736C107.394 46.6736 106.053 46.3316 104.86 45.6475C103.667 44.9635 102.729 43.9894 102.045 42.7253C101.361 41.4612 101.019 39.9919 101.019 38.3173C101.019 36.6455 101.361 35.1707 102.045 33.893C102.729 32.6179 103.667 31.6384 104.86 30.9543C106.053 30.2703 107.394 29.9283 108.885 29.9283C110.373 29.9283 111.681 30.2703 112.803 30.9543C113.925 31.6384 114.781 32.6015 115.375 33.8464H118.711C117.914 31.8053 116.645 30.2238 114.899 29.1019C113.153 27.9801 111.151 27.4192 108.885 27.4192C106.904 27.4192 105.098 27.8843 103.465 28.8119Z" fill="white"/>
</mask>
<g mask="url(#mask14_1_265)">
<path d="M119.126 25.2466L121.586 48.95L98.3945 51.3578L95.9347 27.6517L119.126 25.2466Z" fill="white"/>
</g>
<mask id="mask15_1_265" style="mask-type:luminance" maskUnits="userSpaceOnUse" x="127" y="27" width="17" height="22">
<path d="M140.961 27.6653V37.0312H130.096V27.6653H127.31V48.9992H130.096V39.3268H140.961V48.9992H143.746V27.6653H140.961Z" fill="white"/>
</mask>
<g mask="url(#mask15_1_265)">
<path d="M143.571 25.9771L145.935 48.772L127.485 50.6873L125.119 27.8924L143.571 25.9771Z" fill="white"/>
</g>
<mask id="mask16_1_265" style="mask-type:luminance" maskUnits="userSpaceOnUse" x="151" y="27" width="29" height="23">
<path d="M176.589 27.6653L171.904 45.6939L167.006 27.6653H163.887L158.743 45.7541L154.092 27.6653H151.123L157.091 49.0293L160.182 48.9992L165.324 31.827L170.284 48.9992H173.404L179.587 27.6653H176.589Z" fill="white"/>
</mask>
<g mask="url(#mask16_1_265)">
<path d="M179.284 24.7432L181.782 48.8023L151.427 51.9516L148.929 27.8925L179.284 24.7432Z" fill="white"/>
</g>
<mask id="mask17_1_265" style="mask-type:luminance" maskUnits="userSpaceOnUse" x="185" y="27" width="20" height="22">
<path d="M194.891 31.2167L198.749 41.9918H191.036L194.891 31.2167ZM193.301 27.7883L185.588 48.9991H188.527L190.242 44.2546H199.548L201.261 48.9991H204.199L196.516 27.7883H193.301Z" fill="white"/>
</mask>
<g mask="url(#mask17_1_265)">
<path d="M204 25.8757L206.375 48.772L185.785 50.9089L183.41 28.0127L204 25.8757Z" fill="white"/>
</g>
<mask id="mask18_1_265" style="mask-type:luminance" maskUnits="userSpaceOnUse" x="210" y="27" width="17" height="22">
<path d="M223.694 27.6653L218.43 38.4704L213.166 27.6653H210.074L217.051 40.9494V48.9992H219.839V40.9494L226.786 27.6653H223.694Z" fill="white"/>
</mask>
<g mask="url(#mask18_1_265)">
<path d="M226.608 25.9497L228.975 48.7721L210.252 50.7147L207.882 27.8924L226.608 25.9497Z" fill="white"/>
</g>
</svg>
